<svg id="eV531RIJtwa1" xmlns="http://www.w3.org/2000/svg" xmlns:xlink="http://www.w3.org/1999/xlink" viewBox="0 0 24 24" shape-rendering="geometricPrecision" text-rendering="geometricPrecision" project-id="1f4c4c4419bb40cbb3227e6a70e6eac2" export-id="ad6d9716bec748f3b8e839810a426ed1" cached="false"><path d="M12,29c6.627388,0,12-5.372612,12-12s-5.372612-12-12-12-12,5.372612-12,12s5.37257,12,12,12Zm3.743577-18.409906c.182259-.647294-.445906-1.030023-1.019577-.621318L6.71587,15.673718C6.093727,16.116941,6.19159,17,6.86287,17h2.108753v-.016377h4.109859L9.732706,18.16527L8.256423,23.409906c-.182188.647294.445836,1.030023,1.019577.621318l8.008164-5.704941C17.906259,17.883059,17.808353,17,17.13713,17h-3.197859l1.804306-6.409906Z" transform="translate(0-5)" opacity="0.7" clip-rule="evenodd" fill="#fff" fill-rule="evenodd"/></svg>
